<?xml version="1.0" encoding="utf-8"?>
<svg viewBox="0 0 60 23" width="60px" height="23px" xmlns="http://www.w3.org/2000/svg">
  <path fill="#fff"
    d="M 2.703 1.744 L 7.871 1.744 C 9.94 1.744 11.522 2.311 12.613 3.448 C 13.704 4.585 14.248 6.096 14.248 7.984 L 14.248 15.516 C 14.248 19.182 12.306 21.014 8.421 21.014 L 2.703 21.014 L 2.703 1.744 Z M 11.746 7.709 C 11.746 6.518 11.421 5.638 10.77 5.07 C 10.12 4.501 9.245 4.217 8.146 4.217 L 5.204 4.217 L 5.204 18.731 L 7.981 18.731 C 9.098 18.731 10.004 18.54 10.701 18.155 C 11.398 17.77 11.746 16.981 11.746 15.791 L 11.746 7.709 Z M 27.985 21.014 C 26.006 21.214 24.577 21.315 23.697 21.315 C 21.773 21.315 20.242 20.959 19.106 20.244 C 17.969 19.529 17.401 18.237 17.401 16.367 L 17.401 14.087 C 17.401 12.272 18.034 11.052 19.299 10.43 C 19.904 10.137 20.618 9.99 21.443 9.99 C 22.175 9.99 22.918 10.1 23.669 10.32 C 24.421 10.54 25.025 10.797 25.483 11.09 C 25.483 10.32 25.19 9.744 24.603 9.359 C 24.016 8.974 23.174 8.781 22.074 8.781 L 22.268 7.021 C 24.027 7.021 25.323 7.301 26.157 7.86 C 26.99 8.419 27.503 9.084 27.696 9.853 C 27.889 10.623 27.985 11.613 27.985 12.822 L 27.985 21.014 Z M 25.483 13.592 C 25.006 13.317 24.429 13.069 23.752 12.849 C 23.073 12.629 22.441 12.519 21.854 12.519 C 20.554 12.519 19.904 13.133 19.904 14.362 L 19.904 16.176 C 19.904 18.063 21.113 19.006 23.532 19.006 C 24.119 19.006 24.768 18.951 25.483 18.841 L 25.483 13.592 Z M 30.652 7.241 L 33.016 7.241 L 33.126 7.654 C 33.916 7.232 34.786 7.021 35.739 7.021 C 36.398 7.021 37.168 7.122 38.048 7.325 L 37.443 9.715 C 36.948 9.495 36.416 9.385 35.849 9.385 C 35.097 9.385 34.46 9.573 33.937 9.949 C 33.415 10.325 33.155 10.843 33.155 11.503 L 33.155 21.014 L 30.652 21.014 L 30.652 7.241 Z M 40.406 7.241 L 42.909 7.241 L 42.909 21.014 L 40.406 21.014 L 40.406 7.241 Z M 56.873 21.014 C 54.894 21.214 53.464 21.315 52.585 21.315 C 50.66 21.315 49.132 20.959 47.995 20.244 C 46.858 19.529 46.291 18.237 46.291 16.367 L 46.291 14.087 C 46.291 12.272 46.922 11.052 48.186 10.43 C 48.791 10.137 49.506 9.99 50.331 9.99 C 51.063 9.99 51.806 10.1 52.558 10.32 C 53.308 10.54 53.913 10.797 54.372 11.09 C 54.372 10.32 54.08 9.744 53.493 9.359 C 52.906 8.974 52.063 8.781 50.964 8.781 L 51.155 7.021 C 52.914 7.021 54.211 7.301 55.046 7.86 C 55.88 8.419 56.392 9.084 56.585 9.853 C 56.777 10.623 56.873 11.613 56.873 12.822 L 56.873 21.014 Z M 54.372 13.592 C 53.895 13.317 53.319 13.069 52.64 12.849 C 51.962 12.629 51.331 12.519 50.744 12.519 C 49.442 12.519 48.791 13.133 48.791 14.362 L 48.791 16.176 C 48.791 18.063 50.001 19.006 52.42 19.006 C 53.007 19.006 53.658 18.951 54.372 18.841 L 54.372 13.592 Z" />
  <path fill="#22ae8a"
    d="M 41.732 4.179 C 41.365 4.179 41.04 4.037 40.756 3.753 C 40.473 3.468 40.331 3.143 40.331 2.776 C 40.331 2.428 40.473 2.116 40.756 1.841 C 41.04 1.567 41.365 1.43 41.732 1.43 C 42.099 1.43 42.415 1.563 42.681 1.829 C 42.947 2.093 43.08 2.409 43.08 2.776 C 43.08 3.143 42.941 3.468 42.666 3.753 C 42.392 4.037 42.081 4.179 41.732 4.179 Z" />
</svg>