<?xml version="1.0" encoding="UTF-8"?> <svg xmlns="http://www.w3.org/2000/svg"
  xmlns:xlink="http://www.w3.org/1999/xlink" id="Groupe_5" data-name="Groupe 5" width="138" height="26.996"
  viewBox="0 0 138 26.996">
  <defs>
    <clipPath id="clip-path">
      <rect id="Rectangle_14" data-name="Rectangle 14" width="138" height="26.996" fill="none"></rect>
    </clipPath>
  </defs>
  <g id="Groupe_4" data-name="Groupe 4" clip-path="url(#clip-path)">
    <path id="Tracé_19" data-name="Tracé 19"
      d="M158.454,26.995a2.026,2.026,0,0,1-1.92-1.386q-.249-.742-.515-1.5l-.559-1.6a2.023,2.023,0,0,0-1.91-1.356h-7.666a2.024,2.024,0,0,0-1.913,1.361l-.553,1.6q-.262.756-.505,1.491a2.026,2.026,0,0,1-1.922,1.392h-1.981a2.025,2.025,0,0,1-1.907-2.7q1.006-2.834,1.94-5.361,1.368-3.7,2.676-6.972T144.3,5.745q1.006-2.33,2.074-4.575A2.045,2.045,0,0,1,148.216,0H151.4a2.037,2.037,0,0,1,1.845,1.178q1.046,2.242,2.068,4.568,1.291,2.942,2.6,6.214t2.681,6.972q.934,2.526,1.942,5.36a2.025,2.025,0,0,1-1.907,2.7ZM149.7,7.708a.9.9,0,0,0-.83.576q-.307.8-.672,1.77-.5,1.326-1.119,2.922-.362.936-.734,1.925a1.05,1.05,0,0,0,.982,1.421h4.73a1.05,1.05,0,0,0,.988-1.4q-.361-1-.7-1.951-.581-1.6-1.1-2.928-.38-.963-.691-1.759a.9.9,0,0,0-.848-.571"
      transform="translate(-111.303 0.001)" fill="#ffffff"></path>
    <path id="Tracé_20" data-name="Tracé 20"
      d="M302.895,0q6.007,0,9.2,2.138t3.2,6.642A7.5,7.5,0,0,1,314,13.343a7.527,7.527,0,0,1-1.837,1.753,1.991,1.991,0,0,0-.529,2.8q.171.242.344.494.885,1.291,1.752,2.7t1.676,2.927l.035.065A2,2,0,0,1,313.667,27h-2.3a1.985,1.985,0,0,1-1.741-1.013l-.92-1.644q-.753-1.347-1.546-2.619T305.6,19.313q-.456-.669-.912-1.265a2,2,0,0,0-3.6,1.205V25a2,2,0,0,1-2,2h-2.007a2,2,0,0,1-2-2V2.39A2.01,2.01,0,0,1,296.811.4q1.143-.161,2.329-.248Q301.238,0,302.895,0m.346,5.122q-.655,0-1.175.037h-.01a1.052,1.052,0,0,0-.971,1.05v5.213a1.053,1.053,0,0,0,1.053,1.054h.641a10.223,10.223,0,0,0,4.852-.848,3.06,3.06,0,0,0,1.464-2.888,2.939,2.939,0,0,0-1.483-2.792,9.171,9.171,0,0,0-4.371-.827"
      transform="translate(-239.759)" fill="#ffffff"></path>
    <path id="Tracé_21" data-name="Tracé 21"
      d="M434.092,0H436.1a2.012,2.012,0,0,1,2,2.024V24.972a2.012,2.012,0,0,1-2,2.024h-2.007a2.012,2.012,0,0,1-2-2.024V2.024a2.012,2.012,0,0,1,2-2.024"
      transform="translate(-351.087)" fill="#ffffff"></path>
    <path id="Tracé_22" data-name="Tracé 22"
      d="M514.828,23.836V25a2,2,0,0,1-2,2H499a2,2,0,0,1-2-2L497,2a2,2,0,0,1,2-2H501a2,2,0,0,1,2,2l0,17.835a2,2,0,0,0,2,2h7.822a2,2,0,0,1,2,2"
      transform="translate(-403.824)" fill="#ffffff"></path>
    <path id="Tracé_23" data-name="Tracé 23"
      d="M87.376,0h3.909a2.045,2.045,0,0,1,2.045,2.045v9.409A2.045,2.045,0,0,1,91.285,13.5H87.376a2.045,2.045,0,0,1-2.045-2.045V2.045A2.045,2.045,0,0,1,87.376,0"
      transform="translate(-69.334)" fill="#22ae8a"></path>
    <path id="Tracé_24" data-name="Tracé 24"
      d="M13.952,13.5H11.836a3.554,3.554,0,0,1-2.513-1.041l-.284-.284A3.554,3.554,0,0,1,8,9.66V2.045A2.045,2.045,0,0,0,5.954,0H2.045A2.045,2.045,0,0,0,0,2.045v9.409A2.045,2.045,0,0,0,2.045,13.5H4.161a3.554,3.554,0,0,1,2.513,1.041l.284.284A3.554,3.554,0,0,1,8,17.335v7.616A2.045,2.045,0,0,0,10.043,27h3.909A2.045,2.045,0,0,0,16,24.951V15.542A2.045,2.045,0,0,0,13.952,13.5"
      fill="#ffffff">
    </path>
    <path id="Tracé_25" data-name="Tracé 25"
      d="M605.613,0a13.5,13.5,0,1,0,13.5,13.5A13.5,13.5,0,0,0,605.613,0m0,20.923a7.425,7.425,0,1,1,7.425-7.425,7.425,7.425,0,0,1-7.425,7.425"
      transform="translate(-481.111)" fill="#ffffff"></path>
  </g>
</svg>